<?xml version="1.0" encoding="UTF-8" standalone="no"?>
<svg
   xmlns:dc="http://purl.org/dc/elements/1.1/"
   xmlns:cc="http://creativecommons.org/ns#"
   xmlns:rdf="http://www.w3.org/1999/02/22-rdf-syntax-ns#"
   xmlns:svg="http://www.w3.org/2000/svg"
   xmlns="http://www.w3.org/2000/svg"
   viewBox="0 0 1920 1280"
   height="1280"
   width="1920"
   id="svg3718"
   version="1.1">
  <metadata
     id="metadata3724">
    <rdf:RDF>
      <cc:Work
         rdf:about="">
        <dc:format>image/svg+xml</dc:format>
        <dc:type
           rdf:resource="http://purl.org/dc/dcmitype/StillImage" />
        <dc:title></dc:title>
      </cc:Work>
    </rdf:RDF>
  </metadata>
  <defs
     id="defs3722" />
  <g
     style="display:inline;opacity:1"
     id="layer1">
    <a
       style="fill:#5d2100;fill-opacity:1;stroke:none;stroke-opacity:1"
       transform="translate(-0.34257031,0.48033856)"
       id="a3742">
      <path
         id="path3740"
         d="m 908.42407,1281.3754 c 20.57301,-54.743 55.87157,-118.2387 72.2063,-190.4871 l 18.56734,-112.09174 -63.26648,-22.69341 c -63.91842,40.69217 -85.19207,15.16683 -123.78223,36.10316 25.44412,-23.83955 58.52695,-9.6125 99.54155,-44.69915 l -83.72493,-29.39828 c -33.37959,14.25433 -67.93178,28.02833 -100.40115,33.18052 26.4805,-11.27727 53.74342,-25.41222 78.39542,-41.26075 -16.70009,-5.51573 -35.0162,-13.12881 -52.60745,-21.31805 -15.05383,-9.40454 -27.86362,-19.13781 -38.89387,-29.09618 -27.67029,7.32922 -77.38235,8.56963 -117.53381,-8.19115 39.37404,5.0384 78.41193,3.77015 103.29854,-5.78897 -33.20202,-35.52805 -47.21858,-73.22798 -62.00077,-108.64912 -0.0522,-0.97375 -77.3657,-41.0876 -82.18398,-41.0876 7.04452,-1.56545 72.99784,28.45261 79.29451,34.22989 -19.24479,-45.14638 -37.76099,-85.56099 -106.24316,-112.7515 -36.1908,10.71557 -80.88204,6.69015 -95.24123,6.14391 15.01463,-0.4492 63.54872,-5.68424 86.17731,-12.77274 -26.62733,-13.92241 -52.69307,-18.72506 -107.579,-21.65406 116.80657,-9.06408 175.13043,36.62495 207.61446,82.87804 -1.67861,-9.94098 6.34415,-34.14433 -2.00255,-57.89842 11.71435,14.22976 7.11703,64.6962 8.09176,66.05982 22.61151,31.63308 34.55655,67.93212 59.53139,104.5686 13.47241,-44.52771 -4.28183,-84.31164 -20.6778,-103.99596 35.50918,28.89299 42.78399,73.34718 28.12754,114.38818 17.97876,23.83903 42.41361,47.64777 79.81951,70.23617 l 14.44126,4.81376 c -1.53286,-34.9096 5.26394,-44.07608 13.0659,-63.26648 -7.39906,33.68434 -1.65926,54.92135 8.25215,72.20631 l 129.97135,37.13466 c -1.01176,-38.10887 -18.7085,-64.12115 -56.38968,-75.64469 40.27084,3.53062 76.41562,37.71586 72.89398,82.52149 l 51.57595,11.00286 c 2.0046,-29.8345 2.9232,-62.48677 0.3438,-92.66475 -25.36415,-13.90781 -54.51434,-27.30417 -74.61316,-35.07164 -17.11214,-0.86368 -27.90068,4.15026 -39.88539,6.70487 7.52426,-3.62982 16.37551,-7.88822 28.19485,-10.65902 -30.64975,-11.24683 -59.10766,-19.20589 -88.02293,-27.85101 51.16854,-1.90835 92.12296,5.01893 131.69055,12.03439 -13.90884,-24.51651 -36.2955,-35.93092 -60.17192,-45.04298 31.9326,7.50172 54.94396,22.9856 69.45558,46.0745 l 29.28622,7.29967 -8.88916,-53.67673 c -24.792,0.20955 -56.48521,-8.45388 -100.49658,-32.95495 -103.78236,36.68925 -69.45969,9.81515 -124.05752,4.84353 41.85768,-3.37369 35.29017,25.70436 101.91028,-9.2115 -111.36451,7.99608 -84.96681,-43.391 -163.3123,-82.16351 74.42155,22.09642 66.0246,71.39447 136.31657,59.12892 7.0294,-17.31881 -36.0185,-24.02808 -50.89519,-44.11029 24.36521,21.1649 61.19257,12.97419 71.43442,40.96872 54.37283,-0.28899 74.51846,26.02475 119.46714,22.85487 -5.64133,-21.56738 -12.99045,-43.21865 -26.34995,-69.22697 -59.90775,7.0075 -103.27688,-4.38746 -132.71662,-27.13308 -8.30887,7.73674 -71.40051,-29.15392 -91.05325,-54.98582 23.69585,15.33701 57.78464,37.09786 73.32973,38.06265 -21.8599,-25.75025 -32.00136,-60.08016 -32.57148,-97.18685 -0.33828,-22.01733 -0.65979,-44.58752 -2.13064,-66.68929 -10.09739,-6.2405 -25.30939,-14.42918 -33.23709,-24.28257 6.61449,3.54916 20.99264,6.86256 32.1918,10.91427 -4.65006,-51.24677 -16.90814,-98.78536 -51.77752,-129.4758 31.38325,28.06537 47.89664,57.00703 57.23579,85.74669 6.13505,-7.90055 21.57187,-29.50871 27.69241,-42.99647 -1.92985,14.3956 -20.41702,31.7077 -24.09583,55.33988 4.90755,18.90309 8.14647,49.5645 9.97986,67.84795 0.56732,5.65758 15.68105,-19.60699 25.713,-40.54885 -3.75199,22.35983 -15.49642,42.4623 -22.9809,64.18409 2.78666,21.95656 7.18242,42.86416 17.5229,62.11529 31.21591,58.11543 67.4765,68.65219 96.84845,66.82803 -2.01138,-23.82121 -53.98142,-63.41232 -65.24849,-91.46491 22.9428,34.46961 66.70609,38.93178 86.20456,88.23552 8.08165,-1.88244 11.97048,-1.92645 20.74913,-5.51757 -5.92961,-16.17757 -10.49963,-31.35431 -13.9677,-45.73196 -30.08644,-63.93515 -50.93058,-51.83462 -68.39482,-65.8349 16.54549,3.10442 44.74816,6.86026 61.23812,26.56183 -7.34992,-60.07987 3.39422,-123.32185 8.60759,-180.57184 2.09773,56.53637 3.20315,94.33865 4.86257,120.91581 10.47476,-9.6506 29.72414,-48.61387 39.69825,-69.77375 -0.52357,9.64084 -30.2661,69.75878 -38.85369,81.85211 2.47566,29.1336 6.61047,47.14695 16.01127,75.58626 14.81323,-20.3719 27.96492,-37.47624 43.23509,-52.35124 -12.87461,24.4882 -24.85212,49.8735 -34.98373,77.1047 23.14006,46.59896 41.88453,99.27625 56.91053,144.37298 11.4479,-13.7796 20.7968,-28.60185 35.6541,-46.89009 -64.62679,-82.91076 41.2348,-129.17336 -3.2119,-245.73418 31.2285,53.77976 28.2458,93.12787 21.0582,126.48232 20.6123,-7.72762 40.1525,-17.57608 59.6805,-38.47721 -16.1942,24.67484 -39.62,44.83471 -64.0638,57.04809 -6.9039,28.13391 -12.5655,52.74674 4.6654,79.92671 55.0199,-58.0749 93.9714,-52.93406 154.3891,-67.95639 3.1988,-22.95428 16.0194,-49.94093 28.9811,-70.55334 2.0654,-0.55035 -18.1933,33.76835 -16.4197,67.20382 40.1658,-11.46932 73.6528,-35.99198 99.6898,-70.09684 -11.6803,-12.75515 -10.4351,-41.2702 -4.0504,-67.4748 -0.4469,18.35339 -5.5224,44.23229 9.6944,59.76671 26.732,-38.06248 44.4906,-83.57898 53.3564,-142.07081 -0.2895,35.77227 -8.0078,70.57529 -20.1678,101.77201 19.4954,0.72911 54.1082,-30.35629 74.6124,-46.32245 -13.9611,15.10176 -54.0621,53.57745 -78.1826,55.08301 -13.3221,31.30802 -31.0292,58.55051 -49.8872,78.8725 8.188,4.19059 34.2391,-12.30935 65.2683,-24.21426 -43.0645,24.13695 -54.406,34.51475 -72.9247,32.10585 -24.9093,24.54672 -51.7132,40.32329 -74.4448,46.63719 -39.9946,11.10885 -62.3897,10.68945 -84.579,20.61259 4.4982,12.52784 16.222,25.29994 51.9563,34.95728 -34.249,2.81993 -57.1938,-12.34732 -71.2808,-23.44647 -5.8167,4.35792 -11.925,9.73271 -18.589,16.45666 -41.2377,41.60862 -69.361,99.22553 -86.4695,113.77573 5.3185,21.02957 10.0475,43.39755 13.8971,67.01112 36.8262,-21.86688 64.9492,-39.71328 89.1942,-52.60096 -8.234,-30.28464 9.4207,-61.16595 41.9732,-77.68458 -29.8132,26.0103 -33.0332,54.51324 -23.403,68.49082 26.051,-11.78435 48.6282,-16.60424 75.1944,-13.00866 24.0049,3.24894 46.809,1.52045 69.0372,-1.34935 15.0624,-21.11207 58.7529,-59.15011 100.9187,-77.63169 -31.5233,23.09766 -59.4652,53.83942 -70.215,72.30106 32.9965,-8.04387 63.9694,-20.38209 89.6505,-35.46208 -2.4674,-27.09358 14.5025,-51.03189 18.816,-70.1124 -3.437,22.13798 -13.4482,47.67631 -11.0695,65.43135 42.5613,-26.45627 72.7141,-55.12984 81.5686,-74.14089 -14.5993,36.22736 -62.2506,76.15244 -102.5735,100.32297 6.9562,-0.57284 22.9399,-5.102 29.2283,-5.2938 18.0598,-0.55083 23.0871,7.86562 51.0616,5.55094 -14.0679,4.89336 -30.7271,-1.52863 -50.5702,0.59139 -16.7704,1.79174 -26.971,10.04742 -43.0897,6.11491 -43.6281,23.27538 -90.9627,36.07196 -131.9813,39.8464 2.4879,3.40456 27.6881,18.56022 77.5661,27.96154 -25.8573,3.09156 -83.182,-2.51299 -108.7346,-26.29578 -33.9904,-1.31901 -61.4215,11.89839 -93.2437,36.36498 18.0202,6.49622 38.9515,20.54919 60.354,36.66072 -30.6178,-11.61271 -58.3329,-26.02979 -79.7501,-23.92655 -19.8503,15.00602 -40.4868,31.43437 -63.546,46.19371 3.3513,32.96999 4.8721,67.9647 3.9141,104.77669 14.1851,1.36269 27.6936,1.81656 40.6077,1.48326 12.2774,-35.70888 60.844,-50.96825 73.7191,-75.17333 -10.3381,26.14192 -55.463,47.88229 -59.2742,74.4608 35.3172,-2.58482 66.121,-11.10875 94.2791,-22.81128 6.0597,-9.79651 17.6991,-35.65456 23.2485,-50.34257 -3.0241,19.13501 -10.6786,37.77069 -14.4534,45.93944 43.8192,-19.94484 86.6562,-50.91761 118.8223,-84.8864 -26.2108,32.46209 -35.4461,49.84298 -54.6506,64.4363 17.1547,3.69622 30.0397,4.51563 48.8197,0.17472 -17.8354,6.17743 -37.1273,10.03225 -56.1739,5.33091 -38.2489,28.20308 -75.7408,49.1778 -109.7014,62.08285 32.4345,27.67591 64.4852,17.22111 85.2048,5.29554 -31.6572,24.44057 -62.1055,23.88757 -97.8459,-1.35089 -34.0699,11.22466 -65.6692,15.18686 -94.4311,13.06726 -5.8957,83.1022 -24.6814,174.5581 -63.13204,272.1999 l -89.73359,1.3967"
         style="fill:#5d2100;fill-opacity:1;fill-rule:evenodd;stroke:none;stroke-width:1px;stroke-linecap:butt;stroke-linejoin:miter;stroke-opacity:1" />
    </a>
  </g>
  <g
     style="display:inline"
     id="layer2">
    <ellipse
       ry="134.33733"
       rx="135.15553"
       cy="266.59464"
       cx="635.09198"
       id="path18"
       style="fill:#fd0067;fill-opacity:1;stroke:none;stroke-width:0.98740977;stroke-opacity:1" />
    <circle
       r="34.727795"
       cy="183.98196"
       cx="824.21796"
       id="path4498"
       style="fill:#fca303;fill-opacity:1;stroke:none;stroke-opacity:1" />
    <circle
       r="23.037249"
       cy="218.56732"
       cx="1035.9885"
       id="path4500"
       style="fill:#02acd7;fill-opacity:1;stroke:none;stroke-opacity:1" />
    <circle
       r="101.08883"
       cy="321.37534"
       cx="926.99139"
       id="path4502"
       style="fill:#02acd7;fill-opacity:1;stroke:none;stroke-opacity:1" />
    <circle
       r="35.415474"
       cy="411.80515"
       cx="780.85962"
       id="path4504"
       style="fill:#fca303;fill-opacity:1;stroke:none;stroke-opacity:1" />
    <circle
       r="34.383953"
       cy="485.04297"
       cx="634.72778"
       id="path4506"
       style="fill:#955152;fill-opacity:1;stroke:none;stroke-opacity:1" />
    <circle
       r="68.080231"
       cy="541.43268"
       cx="746.81952"
       id="path4508"
       style="fill:#b8d616;fill-opacity:1;stroke:none;stroke-opacity:1" />
    <circle
       r="24.068768"
       cy="424.52722"
       cx="499.94269"
       id="path4510"
       style="fill:#02acd7;fill-opacity:1;stroke:none;stroke-opacity:1" />
    <circle
       r="34.727795"
       cy="400.11459"
       cx="1060.0574"
       id="path4512"
       style="fill:#f49057;fill-opacity:1;stroke:none;stroke-opacity:1" />
    <circle
       r="115.53009"
       cy="567.56445"
       cx="1144.9856"
       id="path4514"
       style="fill:#9cc4d7;fill-opacity:1;stroke:none;stroke-opacity:1" />
    <circle
       r="23.381088"
       cy="423.83954"
       cx="1334.0974"
       id="path4516"
       style="fill:#955152;fill-opacity:1;stroke:none;stroke-opacity:1" />
    <circle
       r="34.040115"
       cy="335.47278"
       cx="1399.7708"
       id="path4518"
       style="fill:#02acd7;fill-opacity:1;stroke:none;stroke-opacity:1" />
    <circle
       r="24.412607"
       cy="266.01718"
       cx="1443.0946"
       id="path4520"
       style="fill:#f49057;fill-opacity:1;stroke:none;stroke-opacity:1" />
    <circle
       r="68.563019"
       cy="384.79065"
       cx="1502.5513"
       id="path4524"
       style="fill:#01b1ca;fill-opacity:1;stroke:none;stroke-opacity:1" />
    <circle
       r="24.313128"
       cy="495.65851"
       cx="1294.4309"
       id="path4526"
       style="fill:#955152;fill-opacity:1;stroke:none;stroke-opacity:1" />
    <circle
       r="34.767773"
       cy="669.49738"
       cx="1275.2235"
       id="path4528"
       style="fill:#f49057;fill-opacity:1;stroke:none;stroke-opacity:1" />
    <circle
       r="68.076759"
       cy="577.35065"
       cx="1433.5021"
       id="path4530"
       style="fill:#fca303;fill-opacity:1;stroke:none;stroke-opacity:1" />
    <circle
       r="24.069996"
       cy="632.54138"
       cx="1517.3822"
       id="path4532"
       style="fill:#02acd7;fill-opacity:1;stroke:none;stroke-opacity:1" />
    <circle
       r="101.872"
       cy="873.24139"
       cx="1342.8141"
       id="path4534"
       style="fill:#955152;fill-opacity:1;stroke:none;stroke-opacity:1" />
    <circle
       r="23.583735"
       cy="830.93652"
       cx="1188.1825"
       id="path4536"
       style="fill:#fd0067;fill-opacity:1;stroke:none;stroke-opacity:1" />
    <circle
       r="111.59725"
       cy="985.08173"
       cx="1016.5319"
       id="path4538"
       style="fill:#fca303;fill-opacity:1;stroke:none;stroke-opacity:1" />
    <circle
       r="112.07135"
       cy="805.16467"
       cx="679.06561"
       id="path4540"
       style="fill:#02acd7;fill-opacity:1;stroke:none;stroke-width:1.02433324;stroke-opacity:1" />
    <circle
       r="86.553329"
       cy="634.72961"
       cx="921.95374"
       id="path4542"
       style="fill:#fd0067;fill-opacity:1;stroke:none;stroke-width:1.0028007;stroke-opacity:1" />
    <circle
       r="23.826864"
       cy="772.34186"
       cx="859.71216"
       id="path4544"
       style="fill:#955152;fill-opacity:1;stroke:none;stroke-opacity:1" />
    <circle
       r="68.563019"
       cy="601.17749"
       cx="523.70477"
       id="path4546"
       style="fill:#fca303;fill-opacity:1;stroke:none;stroke-opacity:1" />
    <circle
       r="111.84468"
       cy="300.66724"
       cx="1210.7937"
       id="path4548"
       style="fill:#fd0067;fill-opacity:1;stroke:none;stroke-width:0.99141735;stroke-opacity:1" />
  </g>
</svg>
